<?xml version="1.0" encoding="UTF-8" standalone="no"?>
<svg
   xmlns:dc="http://purl.org/dc/elements/1.1/"
   xmlns:cc="http://creativecommons.org/ns#"
   xmlns:rdf="http://www.w3.org/1999/02/22-rdf-syntax-ns#"
   xmlns:svg="http://www.w3.org/2000/svg"
   xmlns="http://www.w3.org/2000/svg"
   xmlns:sodipodi="http://sodipodi.sourceforge.net/DTD/sodipodi-0.dtd"
   xmlns:inkscape="http://www.inkscape.org/namespaces/inkscape"
   version="1.1"
   viewBox="0 0 366.15604 372.79999"
   id="svg116"
   sodipodi:docname="Noun_33167_-_Social_media.svg"
   width="366.15604"
   height="372.79999"
   inkscape:version="0.92.2 5c3e80d, 2017-08-06">
  <metadata
     id="metadata122">
    <rdf:RDF>
      <cc:Work
         rdf:about="">
        <dc:format>image/svg+xml</dc:format>
        <dc:type
           rdf:resource="http://purl.org/dc/dcmitype/StillImage" />
        <dc:title></dc:title>
      </cc:Work>
    </rdf:RDF>
  </metadata>
  <defs
     id="defs120" />
  <sodipodi:namedview
     pagecolor="#ffffff"
     bordercolor="#666666"
     borderopacity="1"
     objecttolerance="10"
     gridtolerance="10"
     guidetolerance="10"
     inkscape:pageopacity="0"
     inkscape:pageshadow="2"
     inkscape:window-width="640"
     inkscape:window-height="480"
     id="namedview118"
     showgrid="false"
     fit-margin-left="10"
     fit-margin-right="10"
     fit-margin-bottom="10"
     fit-margin-top="10"
     inkscape:zoom="0.51428571"
     inkscape:cx="188.64291"
     inkscape:cy="184.09999"
     inkscape:window-x="0"
     inkscape:window-y="0"
     inkscape:window-maximized="0"
     inkscape:current-layer="svg116" />
  <path
     d="m 169.04291,282.5 v 0 c -2.7,0 -6.7,-0.9 -10.7,-5.4 -10.8,-12 -20.8,-23.2 -50.2,-23.2 -7.5,0 -16.100001,0.8 -25.600001,2.3 -42.3,6.7 -44.4,6.7 -45.1,6.7 -0.3,0 -0.6,0 -0.9,-0.1 -3.9,-0.1 -21,-1.8 -25.9,-27 -0.1,-0.2 -0.2,-0.5 -0.2,-0.7 0,-0.3 0,-0.6 0,-1 h -0.1 c -3.3000004,-30 18.3,-34.3 18.5,-34.4 v 0.2 c 0.1,0 0.2,-0.1 0.3,-0.1 v -0.2 c 0.2,0 0.3,0 0.5,0 5.3,-1.3 17.2,-3 43.6,-6.5 50.100001,-6.8 58.100001,-23.8 66.600001,-41.7 2.7,-5.7 7.1,-8.9 12.2,-8.9 6,0 11.6,4.6 12.5,10.2 l 16.9,116 c 0.5,3.2 -0.7,6.7 -3,9.4 -2.5,2.8 -5.9,4.4 -9.4,4.4 z m -61,-35.6 c 32.6,0 44.7,13.5 55.4,25.4 1.9,2.1 3.8,3.2 5.6,3.2 v 0 c 1.5,0 2.9,-0.7 4,-2 1,-1.2 1.5,-2.6 1.4,-3.8 l -17.1,-115.9 c -0.3,-1.9 -2.7,-4.1 -5.5,-4.1 -2.9,0 -4.7,2.6 -5.7,4.7 -8.5,18.1 -18.1,38.5 -72.100001,45.8 -31.5,4.3 -40.5,5.7 -43.2,6.2 -0.3,0.2 -0.6,0.3 -1,0.3 -0.6,0.1 -15.3,3.3 -12.8,26.6 0,0.1 0,0.2 0,0.3 0,0.1 0,0.2 0.1,0.3 3.7,20.3 15.7,21.9 19.3,21.9 0.4,-0.1 0.8,0 1.2,0.1 2,-0.2 10.3,-1.3 43.5,-6.6 10,-1.6 19.000001,-2.4 26.900001,-2.4 z"
     id="path90"
     inkscape:connector-curvature="0" />
  <path
     d="m 96.942909,254.6 c -1.7,0 -3.2,-1.3 -3.5,-3 l -8.4,-57 c -0.3,-1.9 1,-3.7 3,-4 1.9,-0.2 3.7,1.1 4,3 l 8.400001,57 c 0.3,1.9 -1.000001,3.7 -3.000001,4 -0.2,0 -0.3,0 -0.5,0 z"
     id="path92"
     inkscape:connector-curvature="0" />
  <path
     d="m 33.442909,224.2 c -1.7,0 -3.2,-1.3 -3.5,-3 -0.3,-1.9 1,-3.7 3,-4 l 25.7,-3.8 c 1.9,-0.2 3.7,1.1 4,3 0.3,1.9 -1,3.7 -3,4 l -25.7,3.8 c -0.2,0 -0.3,0 -0.5,0 z"
     id="path94"
     inkscape:connector-curvature="0" />
  <path
     d="m 35.942909,241.3 c -1.7,0 -3.2,-1.3 -3.5,-3 -0.3,-1.9 1,-3.7 3,-4 l 25.7,-3.8 c 1.9,-0.2 3.7,1.1 4,3 0.3,1.9 -1,3.7 -3,4 l -25.7,3.8 c -0.2,0 -0.3,0 -0.5,0 z"
     id="path96"
     inkscape:connector-curvature="0" />
  <path
     d="m 94.042909,309 v 0 c -6.7,0 -10.5,-4.2 -10.9,-4.6 l -36.8,-44.2 c -0.8,-1 -1,-2.3 -0.6,-3.5 0.5,-1.2 1.5,-2 2.8,-2.2 l 36,-5 c 1.2,-0.2 2.5,0.3 3.3,1.3 l 31.600001,40.1 c 0.6,0.8 0.9,1.8 0.7,2.8 -0.3,1.7 -0.3,1.7 -14.8,11.6 -3.9,2.4 -7.600001,3.7 -11.300001,3.7 z m -5.6,-9.3 c 0,0 2,2.2 5.5,2.2 2.2,0 4.7,-0.9 7.200001,-2.6 5.2,-3.6 8.4,-5.8 10.3,-7.1 l -28.100001,-35.6 -27.7,3.9 z"
     id="path98"
     inkscape:connector-curvature="0" />
  <path
     d="m 221.74291,255.4 c -0.9,0 -1.8,-0.3 -2.4,-1 -1.4,-1.3 -1.5,-3.6 -0.1,-5 12.3,-12.9 17.8,-30.6 15.1,-48.7 -2.6,-17.9 -13.4,-33.8 -28.9,-42.5 -1.7,-1 -2.3,-3.1 -1.4,-4.8 1,-1.7 3.1,-2.3 4.8,-1.4 17.4,9.7 29.5,27.5 32.4,47.6 3,20.2 -3.2,40.1 -17,54.6 -0.7,0.9 -1.6,1.2 -2.5,1.2 z"
     id="path100"
     inkscape:connector-curvature="0" />
  <path
     d="m 197.44291,239 c -0.8,0 -1.7,-0.3 -2.3,-0.9 -1.5,-1.3 -1.6,-3.5 -0.3,-5 7.9,-9.1 11.5,-19.7 10,-29.7 -1.5,-10.1 -8,-19.2 -18.3,-25.7 -1.7,-1 -2.2,-3.2 -1.1,-4.9 1,-1.7 3.2,-2.2 4.9,-1.1 12.1,7.5 19.7,18.4 21.5,30.6 1.8,12.1 -2.4,24.7 -11.7,35.4 -0.8,0.9 -1.8,1.3 -2.7,1.3 z"
     id="path102"
     inkscape:connector-curvature="0" />
  <path
     d="m 323.24291,102.2 c -2.4,0.7 -5.9,0.1 -5.9,0.1 4.7,-1.5 6.1,-4.4 6.1,-4.4 -5.4,1.2 -7.2,0.2 -7.2,0.2 v 0 c -1.2,-2.4 -3.4,-4.3 -6.1,-5.2 -5.6,-1.8 -11.5,1.3 -13.3,6.8 -0.2,0.6 -0.3,1.2 -0.4,1.8 v 0 c -15.2,-6.4 -16.4,-16.5 -16.4,-16.5 -7.4,6.4 -1.6,13.9 -1.6,13.9 -2.7,-0.7 -3.6,-2.6 -3.6,-2.6 -3.1,7.9 4.4,12.4 4.4,12.4 -3.2,-0.2 -4.3,-1.4 -4.3,-1.4 0.1,7.6 6.7,9.8 6.7,9.8 -8.1,3.3 -15.6,-0.5 -15.6,-0.5 l -0.1,-0.1 c 3.5,4.2 8.2,7.5 13.7,9.3 15.5,5 32,-3.5 37,-19 v 0 c 0.1,-0.3 0.2,-0.6 0.3,-0.8 0.1,-0.2 0.1,-0.4 0.1,-0.6 4.1,-0.8 6.2,-3.2 6.2,-3.2 z"
     id="path104"
     inkscape:connector-curvature="0" />
  <path
     d="m 321.54291,168.6 c -0.8,0 -1.6,-0.1 -2.3,-0.4 l -79.7,-25.6 c -1.9,-0.6 -3.5,-1.9 -4.4,-3.8 -0.9,-1.8 -1.1,-3.9 -0.5,-5.8 l 25.6,-79.7 c 1.3,-3.9 5.6,-6.2 9.6,-4.9 l 79.7,25.6 c 1.9,0.6 3.5,2 4.4,3.8 0.9,1.8 1.1,3.9 0.5,5.8 l -25.6,79.7 c -1.1,3.2 -4,5.3 -7.3,5.3 z m -54,-113.4 -0.7,0.3 -25.6,79.7 0.3,0.7 79.9,25.6 c 0.2,0 0.4,-0.1 0.5,-0.4 l 25.6,-79.7 c 0.1,-0.2 -0.1,-0.6 -0.3,-0.7 z"
     id="path106"
     inkscape:connector-curvature="0" />
  <path
     d="m 76.542909,113.5 c -4,0 -7.4,-3.1 -7.6,-7.2 l -4.7,-83.6 c -0.2,-4.2 3,-7.8 7.1,-8 L 154.94291,10 c 0,0 0,0 0,0 4.4,0 7.8,3.1 8,7.2 l 4.7,83.6 c 0.2,4.2 -3,7.8 -7.1,8 z M 155.44291,17.1 71.842909,21.8 c -0.3,0 -0.5,0.3 -0.5,0.6 l 4.7,83.6 c 0,0.3 0.3,0.5 0.5,0.5 v 3.5 -3.5 l 83.600001,-4.7 c 0.3,0 0.5,-0.3 0.5,-0.6 l -4.7,-83.6 c 0,-0.3 -0.2,-0.5 -0.5,-0.5 z"
     id="path108"
     inkscape:connector-curvature="0" />
  <path
     d="m 144.84291,39.9 -0.5,-9.4 c 0,0 -3.6,0.2 -8.3,0.5 -4.7,0.3 -13.3,4.8 -12.5,19 0,0.7 0.1,1.4 0.1,2.1 l -8.1,0.5 0.6,9.9 8.1,-0.5 c 0.8,13.6 1.6,28.9 1.6,28.9 l 11.5,-0.6 c 0,0 -0.9,-16.4 -1.6,-28.9 l 7.5,-0.4 -0.6,-9.9 -7.5,0.4 c -0.1,-1.7 0,-0.6 -0.1,-1.3 -0.5,-7.4 2.8,-9.9 9.8,-10.3 z"
     id="path110"
     inkscape:connector-curvature="0" />
  <path
     d="m 315.34291,362.8 c -1,0 -2.1,-0.2 -3,-0.6 l -76.9,-33.2 c -3.8,-1.7 -5.6,-6.1 -4,-10 l 33.2,-76.9 c 1.6,-3.7 6.2,-5.6 10,-4 l 76.9,33.2 c 1.9,0.8 3.3,2.3 4.1,4.2 0.7,1.9 0.7,4 -0.1,5.8 l -33.2,76.9 c -1.2,2.8 -3.9,4.6 -7,4.6 z m -43.4,-118.2 -0.7,0.3 -33.2,76.8 c -0.1,0.3 0,0.6 0.3,0.7 l 77.1,33.3 c 0.2,0 0.4,-0.1 0.5,-0.3 l 33.2,-76.9 c 0.1,-0.2 0,-0.6 -0.3,-0.7 z"
     id="path112"
     inkscape:connector-curvature="0" />
  <path
     d="m 315.34291,289.2 -30.4,-13.2 c -4.6,-2 -9.9,0.1 -11.9,4.7 l -6.9,15.9 c -2,4.6 0.1,9.9 4.7,11.9 l 30.4,13.2 c 4.6,2 9.9,-0.1 11.9,-4.7 l 6.9,-15.9 c 2,-4.6 -0.1,-9.9 -4.7,-11.9 z m -31,14.5 6.3,-14.6 10.7,13.2 z"
     id="path114"
     inkscape:connector-curvature="0" />
</svg>
